<?xml version="1.0" encoding="UTF-8" standalone="no"?>
<!-- Created with Inkscape (http://www.inkscape.org/) -->

<svg
   xmlns:dc="http://purl.org/dc/elements/1.1/"
   xmlns:cc="http://creativecommons.org/ns#"
   xmlns:rdf="http://www.w3.org/1999/02/22-rdf-syntax-ns#"
   xmlns:svg="http://www.w3.org/2000/svg"
   xmlns="http://www.w3.org/2000/svg"
   xmlns:sodipodi="http://sodipodi.sourceforge.net/DTD/sodipodi-0.dtd"
   xmlns:inkscape="http://www.inkscape.org/namespaces/inkscape"
   width="1200"
   height="480"
   viewBox="0 0 317.49999 127"
   version="1.1"
   id="svg8"
   inkscape:version="0.92.1 r15371"
   sodipodi:docname="Logo.svg">
  <defs
     id="defs2" />
  <sodipodi:namedview
     id="base"
     pagecolor="#ffffff"
     bordercolor="#666666"
     borderopacity="1.0"
     inkscape:pageopacity="0.0"
     inkscape:pageshadow="2"
     inkscape:zoom="0.50000002"
     inkscape:cx="620.9265"
     inkscape:cy="175.17478"
     inkscape:document-units="px"
     inkscape:current-layer="layer1"
     showgrid="false"
     inkscape:window-width="1366"
     inkscape:window-height="715"
     inkscape:window-x="-8"
     inkscape:window-y="-8"
     inkscape:window-maximized="1"
     inkscape:pagecheckerboard="true"
     units="px"
     width="1200px" />
  <metadata
     id="metadata5">
    <rdf:RDF>
      <cc:Work
         rdf:about="">
        <dc:format>image/svg+xml</dc:format>
        <dc:type
           rdf:resource="http://purl.org/dc/dcmitype/StillImage" />
        <dc:title />
      </cc:Work>
    </rdf:RDF>
  </metadata>
  <g
     inkscape:label="Camada 1"
     inkscape:groupmode="layer"
     id="layer1"
     transform="translate(0,-169.99999)">
    <g
       id="g4519">
      <path
         inkscape:connector-curvature="0"
         d="M 69.83231,195.90215 H 55.015979 l -9.691886,54.92068 c -0.557004,3.00783 -3.45343,5.57006 -6.572657,5.57006 H 23.712303 c -3.007827,0 -5.124446,-2.56223 -4.56744,-5.57006 l 9.691884,-54.92068 h -14.70493 l -9.8032865,55.14348 c -1.8938167,11.02871 5.5700496,20.05219 16.5987465,20.05219 h 15.596139 c 11.028697,0 21.61179,-9.02348 23.505607,-20.05219 z"
         style="font-style:oblique;font-variant:normal;font-weight:normal;font-stretch:normal;font-size:65.18429565px;line-height:1.25;font-family:DAGGERSQUARE;-inkscape-font-specification:'DAGGERSQUARE Oblique';letter-spacing:0px;word-spacing:0px;fill:#666666;fill-opacity:1;stroke:none;stroke-width:0.27850243"
         id="path4568" />
      <path
         inkscape:connector-curvature="0"
         d="M 134.63461,195.90215 109.1238,228.31984 95.198668,195.90215 H 80.493736 l -13.256719,75.19567 h 14.70493 l 8.243682,-46.78842 9.914681,23.06 h 11.36291 l 18.15836,-23.06 -8.24368,46.78842 h 14.70493 l 13.25672,-75.19567 z"
         style="font-style:oblique;font-variant:normal;font-weight:normal;font-stretch:normal;font-size:65.18429565px;line-height:1.25;font-family:DAGGERSQUARE;-inkscape-font-specification:'DAGGERSQUARE Oblique';letter-spacing:0px;word-spacing:0px;fill:#666666;fill-opacity:1;stroke:none;stroke-width:0.27850243"
         id="path4570" />
      <g
         transform="matrix(1.7090157,0,0,1.7090157,-87.146164,42.66005)"
         id="text4504"
         style="font-style:normal;font-weight:normal;font-size:6.5184288px;line-height:1.25;font-family:sans-serif;letter-spacing:0px;word-spacing:0px;fill:#000000;fill-opacity:1;stroke:none;stroke-width:0.16296072"
         aria-label="4">
        <path
           id="path4565"
           style="font-style:oblique;font-variant:normal;font-weight:normal;font-stretch:normal;font-size:65.18429565px;font-family:DAGGERSQUARE;-inkscape-font-specification:'DAGGERSQUARE Oblique';fill:#333333;stroke-width:0.16296072"
           d="m 175.50019,116.39244 h -7.30064 l 2.0859,-11.86355 h -8.66951 l -2.0859,11.86355 h -11.2117 l 12.77612,-26.725565 h -8.99543 L 135.2163,125.06195 h 22.8145 l -1.49924,8.60433 h 8.66952 l 1.49923,-8.60433 h 7.30065 z"
           inkscape:connector-curvature="0" />
      </g>
      <path
         id="path4560"
         transform="matrix(0.26458333,0,0,0.26458333,0,169.99999)"
         d="M 871.82422 97.898438 L 844.87891 153.89648 L 879.4043 153.89648 L 856.13867 286.62695 L 912.23633 286.62695 L 945.50781 97.898438 L 871.82422 97.898438 z "
         style="font-style:oblique;font-variant:normal;font-weight:normal;font-stretch:normal;font-size:65.18429565px;line-height:1.25;font-family:DAGGERSQUARE;-inkscape-font-specification:'DAGGERSQUARE Oblique';letter-spacing:0px;word-spacing:0px;fill:#000000;fill-opacity:1;stroke:none;stroke-width:1.05260766" />
      <path
         id="path4562"
         transform="matrix(0.26458333,0,0,0.26458333,0,169.99999)"
         d="M 1061.5254 97.898438 C 1019.8421 97.898438 979.42138 132.00227 972.26367 173.68555 L 952.18555 286.62695 L 1007.8594 286.62695 L 1011 268 L 1109.9453 268 C 1120.9125 268 1128.2308 276.01795 1127.5039 286.62695 L 1183.7969 286.62695 C 1190.2423 245.47601 1162.6062 212 1121.3125 212 L 1049.3145 212 L 1016.0527 240.21094 L 1027.4199 174.94922 C 1029.5251 163.16 1040.8935 153.89648 1052.2617 153.89648 L 1151.207 153.89648 L 1178.1543 97.898438 L 1061.5254 97.898438 z "
         style="font-style:oblique;font-variant:normal;font-weight:normal;font-stretch:normal;font-size:65.18429565px;line-height:1.25;font-family:DAGGERSQUARE;-inkscape-font-specification:'DAGGERSQUARE Oblique';letter-spacing:0px;word-spacing:0px;fill:#000000;fill-opacity:1;stroke:none;stroke-width:1.05260766" />
      <g
         id="text4541"
         style="font-style:normal;font-weight:normal;font-size:28.64629173px;line-height:1.25;font-family:sans-serif;letter-spacing:0px;word-spacing:0px;fill:#000000;fill-opacity:1;stroke:none;stroke-width:0.71615732"
         aria-label="cliente">
        <path
           id="path4490"
           style="font-style:oblique;font-variant:normal;font-weight:normal;font-stretch:normal;font-family:DAGGERSQUARE;-inkscape-font-specification:'DAGGERSQUARE Oblique';text-align:end;letter-spacing:0px;text-anchor:end;fill:#000000;fill-opacity:1;stroke-width:0.71615732"
           d="m 234.69228,267.3165 h -8.04961 c -0.4297,0 -0.71616,-0.34376 -0.63022,-0.77345 l 1.31773,-7.59127 c 0.0859,-0.42969 0.48699,-0.7448 0.91668,-0.7448 h 6.90376 l 1.80471,-3.80996 h -8.82306 c -2.09117,0 -4.06777,1.69013 -4.44017,3.80996 l -1.60419,9.10952 c -0.3724,2.09118 1.03126,3.78131 3.12244,3.78131 h 8.82306 z" />
        <path
           id="path4492"
           style="font-style:oblique;font-variant:normal;font-weight:normal;font-stretch:normal;font-family:DAGGERSQUARE;-inkscape-font-specification:'DAGGERSQUARE Oblique';text-align:end;letter-spacing:0px;text-anchor:end;fill:#000000;fill-opacity:1;stroke-width:0.71615732"
           d="m 240.37275,271.09781 3.78131,-21.48472 h -3.78131 l -3.78131,21.48472 z" />
        <path
           id="path4494"
           style="font-style:oblique;font-variant:normal;font-weight:normal;font-stretch:normal;font-family:DAGGERSQUARE;-inkscape-font-specification:'DAGGERSQUARE Oblique';text-align:end;letter-spacing:0px;text-anchor:end;fill:#000000;fill-opacity:1;stroke-width:0.71615732"
           d="m 243.08161,271.09781 2.92192,-16.70079 h 3.78131 l -2.92192,16.70079 z m 3.78131,-21.48472 -0.63022,3.55214 3.98184,-1.14585 0.42969,-2.40629 z" />
        <path
           id="path4496"
           style="font-style:oblique;font-variant:normal;font-weight:normal;font-stretch:normal;font-family:DAGGERSQUARE;-inkscape-font-specification:'DAGGERSQUARE Oblique';text-align:end;letter-spacing:0px;text-anchor:end;fill:#000000;fill-opacity:1;stroke-width:0.71615732"
           d="m 262.74908,260.84244 h -4.52612 l -1.83336,3.80995 h 9.48192 l 1.14586,-6.44541 c 0.3724,-2.11983 -1.03127,-3.80996 -3.1511,-3.80996 h -7.59126 c -2.09118,0 -4.06778,1.69013 -4.44018,3.80996 l -1.60419,9.10952 c -0.3724,2.09118 1.03127,3.78131 3.12245,3.78131 h 9.51056 l 1.77607,-3.78131 h -9.85432 c -0.42969,0 -0.71616,-0.34376 -0.63022,-0.77345 l 1.31773,-7.59127 c 0.0859,-0.42969 0.48699,-0.7448 0.91668,-0.7448 h 6.07302 c 0.42969,0 0.68751,0.31511 0.60157,0.7448 z" />
        <path
           id="path4498"
           style="font-style:oblique;font-variant:normal;font-weight:normal;font-stretch:normal;font-family:DAGGERSQUARE;-inkscape-font-specification:'DAGGERSQUARE Oblique';text-align:end;letter-spacing:0px;text-anchor:end;fill:#000000;fill-opacity:1;stroke-width:0.71615732"
           d="m 284.06192,258.20698 c 0.3724,-2.11983 -1.03126,-3.80996 -3.15109,-3.80996 h -4.81258 l -2.23441,1.89066 0.31511,-1.89066 h -3.78131 l -2.92192,16.70079 h 3.78131 l 2.26306,-12.89083 h 5.98707 c 0.4297,0 0.68751,0.31511 0.60157,0.7448 l -2.11982,12.14603 h 3.80996 z" />
        <path
           id="path4500"
           style="font-style:oblique;font-variant:normal;font-weight:normal;font-stretch:normal;font-family:DAGGERSQUARE;-inkscape-font-specification:'DAGGERSQUARE Oblique';text-align:end;letter-spacing:0px;text-anchor:end;fill:#000000;fill-opacity:1;stroke-width:0.71615732"
           d="m 289.75403,267.3165 c -0.42969,0 -0.71616,-0.34376 -0.63022,-0.77345 l 1.46096,-8.33607 h 4.21101 l 1.80471,-3.80996 h -5.35685 l 0.68751,-3.78131 h -3.78131 l -2.95057,16.70079 c -0.3724,2.09118 1.03127,3.78131 3.12245,3.78131 h 5.35685 l 0.65887,-3.78131 z" />
        <path
           id="path4502"
           style="font-style:oblique;font-variant:normal;font-weight:normal;font-stretch:normal;font-family:DAGGERSQUARE;-inkscape-font-specification:'DAGGERSQUARE Oblique';text-align:end;letter-spacing:0px;text-anchor:end;fill:#000000;fill-opacity:1;stroke-width:0.71615732"
           d="m 309.13145,260.84244 h -4.52611 l -1.83336,3.80995 h 9.48192 l 1.14585,-6.44541 c 0.3724,-2.11983 -1.03127,-3.80996 -3.15109,-3.80996 h -7.59127 c -2.09118,0 -4.06777,1.69013 -4.44017,3.80996 l -1.6042,9.10952 c -0.3724,2.09118 1.03127,3.78131 3.12245,3.78131 h 9.51057 l 1.77607,-3.78131 h -9.85433 c -0.42969,0 -0.71615,-0.34376 -0.63021,-0.77345 l 1.31772,-7.59127 c 0.0859,-0.42969 0.48699,-0.7448 0.91669,-0.7448 h 6.07301 c 0.42969,0 0.68751,0.31511 0.60157,0.7448 z" />
      </g>
    </g>
  </g>
</svg>
