<?xml version="1.0" encoding="UTF-8" standalone="no"?>
<!-- Created with Inkscape (http://www.inkscape.org/) -->

<svg
   xmlns:dc="http://purl.org/dc/elements/1.1/"
   xmlns:cc="http://creativecommons.org/ns#"
   xmlns:rdf="http://www.w3.org/1999/02/22-rdf-syntax-ns#"
   xmlns:svg="http://www.w3.org/2000/svg"
   xmlns="http://www.w3.org/2000/svg"
   xmlns:sodipodi="http://sodipodi.sourceforge.net/DTD/sodipodi-0.dtd"
   xmlns:inkscape="http://www.inkscape.org/namespaces/inkscape"
   width="1200"
   height="480"
   viewBox="0 0 317.49999 127"
   version="1.1"
   id="svg8"
   inkscape:version="0.92.1 r15371"
   sodipodi:docname="Logo.svg">
  <defs
     id="defs2" />
  <sodipodi:namedview
     id="base"
     pagecolor="#ffffff"
     bordercolor="#666666"
     borderopacity="1.0"
     inkscape:pageopacity="0.0"
     inkscape:pageshadow="2"
     inkscape:zoom="0.50000002"
     inkscape:cx="484.07008"
     inkscape:cy="168.05912"
     inkscape:document-units="px"
     inkscape:current-layer="layer1"
     showgrid="false"
     inkscape:window-width="1366"
     inkscape:window-height="715"
     inkscape:window-x="-8"
     inkscape:window-y="-8"
     inkscape:window-maximized="1"
     inkscape:pagecheckerboard="true"
     units="px"
     width="1200px" />
  <metadata
     id="metadata5">
    <rdf:RDF>
      <cc:Work
         rdf:about="">
        <dc:format>image/svg+xml</dc:format>
        <dc:type
           rdf:resource="http://purl.org/dc/dcmitype/StillImage" />
        <dc:title />
      </cc:Work>
    </rdf:RDF>
  </metadata>
  <g
     inkscape:label="Camada 1"
     inkscape:groupmode="layer"
     id="layer1"
     transform="translate(0,-169.99999)">
    <g
       id="g4541">
      <path
         inkscape:connector-curvature="0"
         d="M 69.83231,195.90215 H 55.015979 l -9.691886,54.92068 c -0.557004,3.00783 -3.45343,5.57006 -6.572657,5.57006 H 23.712303 c -3.007827,0 -5.124446,-2.56223 -4.56744,-5.57006 l 9.691884,-54.92068 h -14.70493 l -9.8032865,55.14348 c -1.8938167,11.02871 5.5700496,20.05219 16.5987465,20.05219 h 15.596139 c 11.028697,0 21.61179,-9.02348 23.505607,-20.05219 z"
         style="font-style:oblique;font-variant:normal;font-weight:normal;font-stretch:normal;font-size:65.18429565px;line-height:1.25;font-family:DAGGERSQUARE;-inkscape-font-specification:'DAGGERSQUARE Oblique';letter-spacing:0px;word-spacing:0px;fill:#666666;fill-opacity:1;stroke:none;stroke-width:0.27850243"
         id="path4568" />
      <path
         inkscape:connector-curvature="0"
         d="M 134.63461,195.90215 109.1238,228.31984 95.198668,195.90215 H 80.493736 l -13.256719,75.19567 h 14.70493 l 8.243682,-46.78842 9.914681,23.06 h 11.36291 l 18.15836,-23.06 -8.24368,46.78842 h 14.70493 l 13.25672,-75.19567 z"
         style="font-style:oblique;font-variant:normal;font-weight:normal;font-stretch:normal;font-size:65.18429565px;line-height:1.25;font-family:DAGGERSQUARE;-inkscape-font-specification:'DAGGERSQUARE Oblique';letter-spacing:0px;word-spacing:0px;fill:#666666;fill-opacity:1;stroke:none;stroke-width:0.27850243"
         id="path4570" />
      <g
         transform="matrix(1.7090157,0,0,1.7090157,-87.146164,42.66005)"
         id="text4504"
         style="font-style:normal;font-weight:normal;font-size:6.5184288px;line-height:1.25;font-family:sans-serif;letter-spacing:0px;word-spacing:0px;fill:#000000;fill-opacity:1;stroke:none;stroke-width:0.16296072"
         aria-label="4">
        <path
           id="path4565"
           style="font-style:oblique;font-variant:normal;font-weight:normal;font-stretch:normal;font-size:65.18429565px;font-family:DAGGERSQUARE;-inkscape-font-specification:'DAGGERSQUARE Oblique';fill:#333333;stroke-width:0.16296072"
           d="m 175.50019,116.39244 h -7.30064 l 2.0859,-11.86355 h -8.66951 l -2.0859,11.86355 h -11.2117 l 12.77612,-26.725565 h -8.99543 L 135.2163,125.06195 h 22.8145 l -1.49924,8.60433 h 8.66952 l 1.49923,-8.60433 h 7.30065 z"
           inkscape:connector-curvature="0" />
      </g>
      <path
         id="path4560"
         d="m 230.67016,195.90228 -7.12928,14.81615 h 9.13484 l -6.1557,35.11827 h 14.84251 l 8.80307,-49.93442 z"
         style="font-style:oblique;font-variant:normal;font-weight:normal;font-stretch:normal;font-size:65.18429565px;line-height:1.25;font-family:DAGGERSQUARE;-inkscape-font-specification:'DAGGERSQUARE Oblique';letter-spacing:0px;word-spacing:0px;fill:#000000;fill-opacity:1;stroke:none;stroke-width:0.27850243"
         inkscape:connector-curvature="0" />
      <path
         id="path4562"
         d="m 280.86193,195.90228 c -11.02871,0 -21.72336,9.02331 -23.61717,20.05201 l -5.31234,29.88241 h 14.73038 l 0.83095,-4.92838 h 26.17927 c 2.90174,0 4.83804,2.12142 4.64572,4.92838 h 14.89419 c 1.70534,-10.88785 -5.60671,-19.74504 -16.53233,-19.74504 h -19.04948 l -8.80051,7.46414 3.00757,-17.26716 c 0.557,-3.11923 3.56489,-5.57021 6.57272,-5.57021 h 26.17928 l 7.12981,-14.81615 z"
         style="font-style:oblique;font-variant:normal;font-weight:normal;font-stretch:normal;font-size:65.18429565px;line-height:1.25;font-family:DAGGERSQUARE;-inkscape-font-specification:'DAGGERSQUARE Oblique';letter-spacing:0px;word-spacing:0px;fill:#000000;fill-opacity:1;stroke:none;stroke-width:0.27850243"
         inkscape:connector-curvature="0" />
      <g
         id="text4513"
         style="font-style:normal;font-weight:normal;font-size:25.60122299px;line-height:1.25;font-family:sans-serif;letter-spacing:0px;word-spacing:0px;fill:#000000;fill-opacity:1;stroke:none;stroke-width:0.64003062"
         transform="scale(0.96263232,1.0388182)"
         aria-label="vendas">
        <path
           id="path4515"
           style="font-style:oblique;font-variant:normal;font-weight:normal;font-stretch:normal;font-family:DAGGERSQUARE;-inkscape-font-specification:'DAGGERSQUARE Oblique';text-align:end;text-anchor:end;stroke-width:0.64003062"
           d="m 244.52488,246.04199 -5.24825,11.41814 -1.25446,-11.41814 h -3.78898 l 1.86889,14.92551 h 5.12024 l 7.09154,-14.92551 z" />
        <path
           id="path4517"
           style="font-style:oblique;font-variant:normal;font-weight:normal;font-stretch:normal;font-family:DAGGERSQUARE;-inkscape-font-specification:'DAGGERSQUARE Oblique';text-align:end;text-anchor:end;stroke-width:0.64003062"
           d="m 258.99517,251.80226 h -4.04499 l -1.63848,3.40496 h 8.47401 l 1.02404,-5.76027 c 0.33282,-1.89449 -0.92164,-3.40496 -2.81613,-3.40496 h -6.78432 c -1.86889,0 -3.63538,1.51047 -3.96819,3.40496 l -1.43367,8.14119 c -0.33282,1.86889 0.92164,3.37936 2.79053,3.37936 h 8.49961 l 1.58727,-3.37936 h -8.80682 c -0.38402,0 -0.64003,-0.30722 -0.56323,-0.69124 l 1.17766,-6.78432 c 0.0768,-0.38402 0.43522,-0.66563 0.81924,-0.66563 h 5.42746 c 0.38402,0 0.61443,0.28161 0.53763,0.66563 z" />
        <path
           id="path4519"
           style="font-style:oblique;font-variant:normal;font-weight:normal;font-stretch:normal;font-family:DAGGERSQUARE;-inkscape-font-specification:'DAGGERSQUARE Oblique';text-align:end;text-anchor:end;stroke-width:0.64003062"
           d="m 278.04248,249.44695 c 0.33282,-1.89449 -0.92164,-3.40496 -2.81613,-3.40496 h -4.30101 l -1.99689,1.68968 0.28161,-1.68968 h -3.37936 l -2.61133,14.92551 h 3.37937 l 2.02249,-11.52055 h 5.35066 c 0.38402,0 0.61443,0.28161 0.53762,0.66563 l -1.89449,10.85492 h 3.40497 z" />
        <path
           id="path4521"
           style="font-style:oblique;font-variant:normal;font-weight:normal;font-stretch:normal;font-family:DAGGERSQUARE;-inkscape-font-specification:'DAGGERSQUARE Oblique';text-align:end;text-anchor:end;stroke-width:0.64003062"
           d="m 295.41811,241.76658 h -3.40496 l -2.79054,15.82156 h -6.09309 c -0.38401,0 -0.64003,-0.30722 -0.56322,-0.69124 l 1.17765,-6.78432 c 0.0768,-0.38402 0.43522,-0.66563 0.81924,-0.66563 h 5.06904 l -0.43522,-3.40496 h -4.73622 c -1.86889,0 -3.63538,1.51047 -3.96819,3.40496 l -1.43367,8.14119 c -0.33282,1.86889 0.92164,3.37936 2.79053,3.37936 h 5.09465 l 1.97129,-1.68968 -0.28161,1.68968 h 3.40496 z" />
        <path
           id="path4523"
           style="font-style:oblique;font-variant:normal;font-weight:normal;font-stretch:normal;font-family:DAGGERSQUARE;-inkscape-font-specification:'DAGGERSQUARE Oblique';text-align:end;text-anchor:end;stroke-width:0.64003062"
           d="m 310.06201,249.44695 c 0.33282,-1.89449 -0.92164,-3.40496 -2.81613,-3.40496 h -7.78277 l -1.61288,3.40496 h 8.14119 c 0.38402,0 0.61443,0.28161 0.53762,0.66563 l -1.30566,7.47556 h -6.09309 c -0.38402,0 -0.64003,-0.30722 -0.56323,-0.69124 l 0.17921,-1.02404 c 0.0512,-0.35842 0.40962,-0.66564 0.79364,-0.66564 h 4.83863 l -0.38402,-3.40496 h -4.53141 c -1.86889,0 -3.66098,1.53607 -3.99379,3.40496 l -0.40962,2.38092 c -0.33282,1.86889 0.92164,3.37936 2.79053,3.37936 h 5.09464 l 1.9713,-1.68968 -0.28162,1.68968 h 3.40497 z" />
        <path
           id="path4525"
           style="font-style:oblique;font-variant:normal;font-weight:normal;font-stretch:normal;font-family:DAGGERSQUARE;-inkscape-font-specification:'DAGGERSQUARE Oblique';text-align:end;text-anchor:end;stroke-width:0.64003062"
           d="m 325.03873,255.20722 c 0.33282,-1.86889 -0.89604,-3.40496 -2.79053,-3.40496 h -6.09309 c -0.38402,0 -0.64003,-0.30721 -0.58883,-0.66563 l 0.17921,-1.02405 c 0.0768,-0.38402 0.43522,-0.66563 0.81924,-0.66563 h 7.44995 l 1.61288,-3.40496 h -9.16524 c -1.86889,0 -3.63537,1.51047 -3.96819,3.40496 l -0.40962,2.35531 c -0.33281,1.86889 0.89604,3.40496 2.76493,3.40496 h 6.1187 c 0.38401,0 0.61443,0.30722 0.56322,0.66564 l -0.17921,1.02404 c -0.0768,0.38402 -0.40962,0.69124 -0.79363,0.69124 h -8.47401 l -1.61288,3.37936 h 10.16369 c 1.89449,0 3.66097,-1.51047 3.99379,-3.37936 z" />
      </g>
    </g>
  </g>
</svg>
