<?xml version="1.0" encoding="UTF-8" standalone="no"?>
<!-- Created with Inkscape (http://www.inkscape.org/) -->

<svg
   xmlns:dc="http://purl.org/dc/elements/1.1/"
   xmlns:cc="http://creativecommons.org/ns#"
   xmlns:rdf="http://www.w3.org/1999/02/22-rdf-syntax-ns#"
   xmlns:svg="http://www.w3.org/2000/svg"
   xmlns="http://www.w3.org/2000/svg"
   xmlns:sodipodi="http://sodipodi.sourceforge.net/DTD/sodipodi-0.dtd"
   xmlns:inkscape="http://www.inkscape.org/namespaces/inkscape"
   width="1200"
   height="480"
   viewBox="0 0 317.49999 127"
   version="1.1"
   id="svg8"
   inkscape:version="0.92.1 r15371"
   sodipodi:docname="Logo.svg">
  <defs
     id="defs2" />
  <sodipodi:namedview
     id="base"
     pagecolor="#ffffff"
     bordercolor="#666666"
     borderopacity="1.0"
     inkscape:pageopacity="0.0"
     inkscape:pageshadow="2"
     inkscape:zoom="0.50000002"
     inkscape:cx="682.9265"
     inkscape:cy="175.17478"
     inkscape:document-units="px"
     inkscape:current-layer="layer1"
     showgrid="false"
     inkscape:window-width="1366"
     inkscape:window-height="715"
     inkscape:window-x="-8"
     inkscape:window-y="-8"
     inkscape:window-maximized="1"
     inkscape:pagecheckerboard="true"
     units="px"
     width="1200px" />
  <metadata
     id="metadata5">
    <rdf:RDF>
      <cc:Work
         rdf:about="">
        <dc:format>image/svg+xml</dc:format>
        <dc:type
           rdf:resource="http://purl.org/dc/dcmitype/StillImage" />
        <dc:title />
      </cc:Work>
    </rdf:RDF>
  </metadata>
  <g
     inkscape:label="Camada 1"
     inkscape:groupmode="layer"
     id="layer1"
     transform="translate(0,-169.99999)">
    <path
       id="path4568"
       style="font-style:oblique;font-variant:normal;font-weight:normal;font-stretch:normal;font-size:65.18429565px;line-height:1.25;font-family:DAGGERSQUARE;-inkscape-font-specification:'DAGGERSQUARE Oblique';letter-spacing:0px;word-spacing:0px;fill:#666666;fill-opacity:1;stroke:none;stroke-width:0.27850243"
       d="M 69.83231,195.90215 H 55.015979 l -9.691886,54.92068 c -0.557004,3.00783 -3.45343,5.57006 -6.572657,5.57006 H 23.712303 c -3.007827,0 -5.124446,-2.56223 -4.56744,-5.57006 l 9.691884,-54.92068 h -14.70493 l -9.8032865,55.14348 c -1.8938167,11.02871 5.5700496,20.05219 16.5987465,20.05219 h 15.596139 c 11.028697,0 21.61179,-9.02348 23.505607,-20.05219 z"
       inkscape:connector-curvature="0" />
    <path
       id="path4570"
       style="font-style:oblique;font-variant:normal;font-weight:normal;font-stretch:normal;font-size:65.18429565px;line-height:1.25;font-family:DAGGERSQUARE;-inkscape-font-specification:'DAGGERSQUARE Oblique';letter-spacing:0px;word-spacing:0px;fill:#666666;fill-opacity:1;stroke:none;stroke-width:0.27850243"
       d="M 134.63461,195.90215 109.1238,228.31984 95.198668,195.90215 H 80.493736 l -13.256719,75.19567 h 14.70493 l 8.243682,-46.78842 9.914681,23.06 h 11.36291 l 18.15836,-23.06 -8.24368,46.78842 h 14.70493 l 13.25672,-75.19567 z"
       inkscape:connector-curvature="0" />
    <g
       aria-label="4"
       style="font-style:normal;font-weight:normal;font-size:6.5184288px;line-height:1.25;font-family:sans-serif;letter-spacing:0px;word-spacing:0px;fill:#000000;fill-opacity:1;stroke:none;stroke-width:0.16296072"
       id="text4504"
       transform="matrix(1.7090157,0,0,1.7090157,-87.146164,42.66005)">
      <path
         inkscape:connector-curvature="0"
         d="m 175.50019,116.39244 h -7.30064 l 2.0859,-11.86355 h -8.66951 l -2.0859,11.86355 h -11.2117 l 12.77612,-26.725565 h -8.99543 L 135.2163,125.06195 h 22.8145 l -1.49924,8.60433 h 8.66952 l 1.49923,-8.60433 h 7.30065 z"
         style="font-style:oblique;font-variant:normal;font-weight:normal;font-stretch:normal;font-size:65.18429565px;font-family:DAGGERSQUARE;-inkscape-font-specification:'DAGGERSQUARE Oblique';fill:#333333;stroke-width:0.16296072"
         id="path4565" />
    </g>
    <path
       inkscape:connector-curvature="0"
       id="path4503"
       style="font-style:oblique;font-variant:normal;font-weight:normal;font-stretch:normal;font-size:medium;line-height:1.25;font-family:DAGGERSQUARE;-inkscape-font-specification:'DAGGERSQUARE Oblique';letter-spacing:0px;word-spacing:0px;fill:#000000;fill-opacity:1;stroke:none;stroke-width:2.78502345"
       d="m 250.5556,194.91438 h -19.49516 l -7.12966,14.81632 h 9.13487 l -10.58309,60.37932 h 14.81633 z" />
    <path
       inkscape:connector-curvature="0"
       id="path4505"
       style="font-style:oblique;font-variant:normal;font-weight:normal;font-stretch:normal;font-size:medium;line-height:1.25;font-family:DAGGERSQUARE;-inkscape-font-specification:'DAGGERSQUARE Oblique';letter-spacing:0px;word-spacing:0px;fill:#000000;fill-opacity:1;stroke:none;stroke-width:2.78502345"
       d="m 297.07072,225.10403 h -19.04956 l -8.80068,7.46387 3.00783,-17.26715 c 0.557,-3.11923 3.56483,-5.57005 6.57265,-5.57005 h 26.17923 l 7.12966,-14.81632 h -30.85807 c -11.02869,0 -21.72318,9.02347 -23.617,20.05217 l -6.23845,35.0913 c -1.89382,11.02869 5.57005,20.05217 16.59874,20.05217 h 21.16618 c 11.0287,0 21.61179,-9.02348 23.5056,-20.05217 l 0.89121,-4.90165 c 1.89382,-11.02869 -5.45865,-20.05217 -16.48734,-20.05217 z m 0.89121,24.73101 c -0.55701,3.00783 -3.45343,5.57005 -6.57266,5.57005 H 270.7801 c -3.00783,0 -5.12445,-2.56222 -4.56744,-5.57005 l 1.67101,-9.91468 h 26.17922 c 3.11923,0 5.12445,2.45082 4.56744,5.57005 z" />
  </g>
</svg>
