<?xml version="1.0" encoding="UTF-8" standalone="no"?>
<!-- Created with Inkscape (http://www.inkscape.org/) -->

<svg
   xmlns:dc="http://purl.org/dc/elements/1.1/"
   xmlns:cc="http://creativecommons.org/ns#"
   xmlns:rdf="http://www.w3.org/1999/02/22-rdf-syntax-ns#"
   xmlns:svg="http://www.w3.org/2000/svg"
   xmlns="http://www.w3.org/2000/svg"
   xmlns:sodipodi="http://sodipodi.sourceforge.net/DTD/sodipodi-0.dtd"
   xmlns:inkscape="http://www.inkscape.org/namespaces/inkscape"
   width="1200"
   height="480"
   viewBox="0 0 317.49999 127"
   version="1.1"
   id="svg8"
   inkscape:version="0.92.1 r15371"
   sodipodi:docname="Logo.svg">
  <defs
     id="defs2" />
  <sodipodi:namedview
     id="base"
     pagecolor="#ffffff"
     bordercolor="#666666"
     borderopacity="1.0"
     inkscape:pageopacity="0.0"
     inkscape:pageshadow="2"
     inkscape:zoom="0.50000002"
     inkscape:cx="571.9265"
     inkscape:cy="175.17478"
     inkscape:document-units="px"
     inkscape:current-layer="layer1"
     showgrid="false"
     inkscape:window-width="1366"
     inkscape:window-height="715"
     inkscape:window-x="-8"
     inkscape:window-y="-8"
     inkscape:window-maximized="1"
     inkscape:pagecheckerboard="true"
     units="px"
     width="1200px" />
  <metadata
     id="metadata5">
    <rdf:RDF>
      <cc:Work
         rdf:about="">
        <dc:format>image/svg+xml</dc:format>
        <dc:type
           rdf:resource="http://purl.org/dc/dcmitype/StillImage" />
        <dc:title />
      </cc:Work>
    </rdf:RDF>
  </metadata>
  <g
     inkscape:label="Camada 1"
     inkscape:groupmode="layer"
     id="layer1"
     transform="translate(0,-169.99999)">
    <path
       id="path4568"
       style="font-style:oblique;font-variant:normal;font-weight:normal;font-stretch:normal;font-size:65.18429565px;line-height:1.25;font-family:DAGGERSQUARE;-inkscape-font-specification:'DAGGERSQUARE Oblique';letter-spacing:0px;word-spacing:0px;fill:#666666;fill-opacity:1;stroke:none;stroke-width:0.27850243"
       d="M 69.83231,195.90215 H 55.015979 l -9.691886,54.92068 c -0.557004,3.00783 -3.45343,5.57006 -6.572657,5.57006 H 23.712303 c -3.007827,0 -5.124446,-2.56223 -4.56744,-5.57006 l 9.691884,-54.92068 h -14.70493 l -9.8032865,55.14348 c -1.8938167,11.02871 5.5700496,20.05219 16.5987465,20.05219 h 15.596139 c 11.028697,0 21.61179,-9.02348 23.505607,-20.05219 z"
       inkscape:connector-curvature="0" />
    <path
       id="path4570"
       style="font-style:oblique;font-variant:normal;font-weight:normal;font-stretch:normal;font-size:65.18429565px;line-height:1.25;font-family:DAGGERSQUARE;-inkscape-font-specification:'DAGGERSQUARE Oblique';letter-spacing:0px;word-spacing:0px;fill:#666666;fill-opacity:1;stroke:none;stroke-width:0.27850243"
       d="M 134.63461,195.90215 109.1238,228.31984 95.198668,195.90215 H 80.493736 l -13.256719,75.19567 h 14.70493 l 8.243682,-46.78842 9.914681,23.06 h 11.36291 l 18.15836,-23.06 -8.24368,46.78842 h 14.70493 l 13.25672,-75.19567 z"
       inkscape:connector-curvature="0" />
    <g
       aria-label="4"
       style="font-style:normal;font-weight:normal;font-size:6.5184288px;line-height:1.25;font-family:sans-serif;letter-spacing:0px;word-spacing:0px;fill:#000000;fill-opacity:1;stroke:none;stroke-width:0.16296072"
       id="text4504"
       transform="matrix(1.7090157,0,0,1.7090157,-87.146164,42.66005)">
      <path
         inkscape:connector-curvature="0"
         d="m 175.50019,116.39244 h -7.30064 l 2.0859,-11.86355 h -8.66951 l -2.0859,11.86355 h -11.2117 l 12.77612,-26.725565 h -8.99543 L 135.2163,125.06195 h 22.8145 l -1.49924,8.60433 h 8.66952 l 1.49923,-8.60433 h 7.30065 z"
         style="font-style:oblique;font-variant:normal;font-weight:normal;font-stretch:normal;font-size:65.18429565px;font-family:DAGGERSQUARE;-inkscape-font-specification:'DAGGERSQUARE Oblique';fill:#333333;stroke-width:0.16296072"
         id="path4565" />
    </g>
    <path
       inkscape:connector-curvature="0"
       style="font-style:oblique;font-variant:normal;font-weight:normal;font-stretch:normal;font-size:65.18429565px;line-height:1.25;font-family:DAGGERSQUARE;-inkscape-font-specification:'DAGGERSQUARE Oblique';letter-spacing:0px;word-spacing:0px;fill:#000000;fill-opacity:1;stroke:none;stroke-width:0.27850243"
       d="m 230.67016,195.90228 -7.12928,14.81615 h 9.13484 l -6.1557,35.11827 h 14.84251 l 8.80307,-49.93442 z"
       id="path4560" />
    <path
       inkscape:connector-curvature="0"
       style="font-style:oblique;font-variant:normal;font-weight:normal;font-stretch:normal;font-size:65.18429565px;line-height:1.25;font-family:DAGGERSQUARE;-inkscape-font-specification:'DAGGERSQUARE Oblique';letter-spacing:0px;word-spacing:0px;fill:#000000;fill-opacity:1;stroke:none;stroke-width:0.27850243"
       d="m 280.86193,195.90228 c -11.02871,0 -21.72336,9.02331 -23.61717,20.05201 l -5.31234,29.88241 h 14.73038 l 0.83095,-4.92838 h 26.17927 c 2.90174,0 4.83804,2.12142 4.64572,4.92838 h 14.89419 c 1.70534,-10.88785 -5.60671,-19.74504 -16.53233,-19.74504 h -19.04948 l -8.80051,7.46414 3.00757,-17.26716 c 0.557,-3.11923 3.56489,-5.57021 6.57272,-5.57021 h 26.17928 l 7.12981,-14.81615 z"
       id="path4562" />
    <g
       aria-label="contas"
       transform="scale(0.9271454,1.0785795)"
       style="font-style:normal;font-weight:normal;font-size:29.32338142px;line-height:1.25;font-family:sans-serif;letter-spacing:0px;word-spacing:0px;fill:#000000;fill-opacity:1;stroke:none;stroke-width:0.73308456"
       id="text4513">
      <path
         d="m 252.43845,247.47641 h -8.23987 c -0.43985,0 -0.73308,-0.35189 -0.64511,-0.79174 l 1.34887,-7.77069 c 0.088,-0.43985 0.4985,-0.76241 0.93835,-0.76241 h 7.06693 l 1.84738,-3.90001 h -9.0316 c -2.14061,0 -4.16392,1.73008 -4.54513,3.90001 l -1.64211,9.32484 c -0.3812,2.1406 1.05564,3.87068 3.19625,3.87068 h 9.0316 z"
         style="font-style:oblique;font-variant:normal;font-weight:normal;font-stretch:normal;font-family:DAGGERSQUARE;-inkscape-font-specification:'DAGGERSQUARE Oblique';stroke-width:0.73308456"
         id="path4515" />
      <path
         d="m 269.01487,234.25156 h -7.7707 c -2.14061,0 -4.16392,1.73008 -4.54512,3.90001 l -1.64211,9.32484 c -0.38121,2.1406 1.05564,3.87068 3.19625,3.87068 h 7.77069 c 2.16993,0 4.19324,-1.73008 4.57445,-3.87068 l 1.64211,-9.32484 c 0.3812,-2.16993 -1.05564,-3.90001 -3.22557,-3.90001 z m -2.16993,12.43311 c -0.088,0.43985 -0.46918,0.79174 -0.90903,0.79174 h -6.21656 c -0.43985,0 -0.73308,-0.35189 -0.64511,-0.79174 l 1.34888,-7.77069 c 0.088,-0.43985 0.49849,-0.76241 0.93834,-0.76241 h 6.21656 c 0.43985,0 0.70376,0.32256 0.61579,0.76241 z"
         style="font-style:oblique;font-variant:normal;font-weight:normal;font-stretch:normal;font-family:DAGGERSQUARE;-inkscape-font-specification:'DAGGERSQUARE Oblique';stroke-width:0.73308456"
         id="path4517" />
      <path
         d="m 289.68785,238.15157 c 0.38121,-2.16993 -1.05564,-3.90001 -3.22557,-3.90001 h -4.92633 l -2.28722,1.93534 0.32256,-1.93534 h -3.87069 l -2.99099,17.09553 h 3.87069 l 2.31655,-13.19552 h 6.12858 c 0.43985,0 0.70377,0.32256 0.6158,0.76241 l -2.16994,12.43311 h 3.90001 z"
         style="font-style:oblique;font-variant:normal;font-weight:normal;font-stretch:normal;font-family:DAGGERSQUARE;-inkscape-font-specification:'DAGGERSQUARE Oblique';stroke-width:0.73308456"
         id="path4519" />
      <path
         d="m 295.5145,247.47641 c -0.43985,0 -0.73309,-0.35189 -0.64512,-0.79174 l 1.4955,-8.5331 h 4.31053 l 1.84738,-3.90001 h -5.48348 l 0.70377,-3.87069 h -3.87069 l -3.02031,17.09554 c -0.3812,2.1406 1.05564,3.87068 3.19625,3.87068 h 5.48347 l 0.67444,-3.87068 z"
         style="font-style:oblique;font-variant:normal;font-weight:normal;font-stretch:normal;font-family:DAGGERSQUARE;-inkscape-font-specification:'DAGGERSQUARE Oblique';stroke-width:0.73308456"
         id="path4521" />
      <path
         d="m 319.71911,238.15157 c 0.38121,-2.16993 -1.05564,-3.90001 -3.22557,-3.90001 h -8.91431 l -1.84737,3.90001 h 9.32484 c 0.43985,0 0.70376,0.32256 0.61579,0.76241 l -1.49549,8.56243 h -6.97897 c -0.43985,0 -0.73308,-0.35189 -0.64511,-0.79174 l 0.20526,-1.17293 c 0.0587,-0.41053 0.46917,-0.76241 0.90903,-0.76241 h 5.54211 l -0.43985,-3.90001 h -5.19024 c -2.1406,0 -4.19324,1.7594 -4.57444,3.90001 l -0.46918,2.72708 c -0.3812,2.1406 1.05565,3.87068 3.19625,3.87068 h 5.83535 l 2.25791,-1.93534 -0.32256,1.93534 h 3.90001 z"
         style="font-style:oblique;font-variant:normal;font-weight:normal;font-stretch:normal;font-family:DAGGERSQUARE;-inkscape-font-specification:'DAGGERSQUARE Oblique';stroke-width:0.73308456"
         id="path4523" />
      <path
         d="m 336.8733,244.74933 c 0.3812,-2.14061 -1.02632,-3.90001 -3.19625,-3.90001 h -6.97897 c -0.43985,0 -0.73308,-0.35188 -0.67443,-0.76241 l 0.20526,-1.17293 c 0.088,-0.43985 0.4985,-0.76241 0.93835,-0.76241 h 8.5331 l 1.84738,-3.90001 h -10.49778 c -2.1406,0 -4.16392,1.73008 -4.54512,3.90001 l -0.46917,2.69775 c -0.38121,2.14061 1.02631,3.90001 3.16692,3.90001 h 7.00829 c 0.43985,0 0.70376,0.35188 0.64511,0.76241 l -0.20526,1.17293 c -0.088,0.43985 -0.46917,0.79174 -0.90902,0.79174 h -9.70604 l -1.84738,3.87068 h 11.64139 c 2.16993,0 4.19324,-1.73008 4.57444,-3.87068 z"
         style="font-style:oblique;font-variant:normal;font-weight:normal;font-stretch:normal;font-family:DAGGERSQUARE;-inkscape-font-specification:'DAGGERSQUARE Oblique';stroke-width:0.73308456"
         id="path4525" />
    </g>
  </g>
</svg>
