<?xml version="1.0" encoding="UTF-8" standalone="no"?>
<!-- Created with Inkscape (http://www.inkscape.org/) -->

<svg
   xmlns:dc="http://purl.org/dc/elements/1.1/"
   xmlns:cc="http://creativecommons.org/ns#"
   xmlns:rdf="http://www.w3.org/1999/02/22-rdf-syntax-ns#"
   xmlns:svg="http://www.w3.org/2000/svg"
   xmlns="http://www.w3.org/2000/svg"
   xmlns:sodipodi="http://sodipodi.sourceforge.net/DTD/sodipodi-0.dtd"
   xmlns:inkscape="http://www.inkscape.org/namespaces/inkscape"
   width="1200"
   height="480"
   viewBox="0 0 317.49999 127"
   version="1.1"
   id="svg8"
   inkscape:version="0.92.1 r15371"
   sodipodi:docname="Logo.svg">
  <defs
     id="defs2" />
  <sodipodi:namedview
     id="base"
     pagecolor="#ffffff"
     bordercolor="#666666"
     borderopacity="1.0"
     inkscape:pageopacity="0.0"
     inkscape:pageshadow="2"
     inkscape:zoom="0.1767767"
     inkscape:cx="-942.69972"
     inkscape:cy="854.14527"
     inkscape:document-units="px"
     inkscape:current-layer="layer1"
     showgrid="false"
     inkscape:window-width="1366"
     inkscape:window-height="715"
     inkscape:window-x="-8"
     inkscape:window-y="-8"
     inkscape:window-maximized="1"
     inkscape:pagecheckerboard="true"
     units="px"
     width="1200px" />
  <metadata
     id="metadata5">
    <rdf:RDF>
      <cc:Work
         rdf:about="">
        <dc:format>image/svg+xml</dc:format>
        <dc:type
           rdf:resource="http://purl.org/dc/dcmitype/StillImage" />
        <dc:title />
      </cc:Work>
    </rdf:RDF>
  </metadata>
  <g
     inkscape:label="Camada 1"
     inkscape:groupmode="layer"
     id="layer1"
     transform="translate(0,-169.99999)">
    <g
       id="g4513">
      <path
         inkscape:connector-curvature="0"
         d="M 69.83231,195.90215 H 55.015979 l -9.691886,54.92068 c -0.557004,3.00783 -3.45343,5.57006 -6.572657,5.57006 H 23.712303 c -3.007827,0 -5.124446,-2.56223 -4.56744,-5.57006 l 9.691884,-54.92068 h -14.70493 l -9.8032865,55.14348 c -1.8938167,11.02871 5.5700496,20.05219 16.5987465,20.05219 h 15.596139 c 11.028697,0 21.61179,-9.02348 23.505607,-20.05219 z"
         style="font-style:oblique;font-variant:normal;font-weight:normal;font-stretch:normal;font-size:65.18429565px;line-height:1.25;font-family:DAGGERSQUARE;-inkscape-font-specification:'DAGGERSQUARE Oblique';letter-spacing:0px;word-spacing:0px;fill:#666666;fill-opacity:1;stroke:none;stroke-width:0.27850243"
         id="path4568" />
      <path
         inkscape:connector-curvature="0"
         d="M 134.63461,195.90215 109.1238,228.31984 95.198668,195.90215 H 80.493736 l -13.256719,75.19567 h 14.70493 l 8.243682,-46.78842 9.914681,23.06 h 11.36291 l 18.15836,-23.06 -8.24368,46.78842 h 14.70493 l 13.25672,-75.19567 z"
         style="font-style:oblique;font-variant:normal;font-weight:normal;font-stretch:normal;font-size:65.18429565px;line-height:1.25;font-family:DAGGERSQUARE;-inkscape-font-specification:'DAGGERSQUARE Oblique';letter-spacing:0px;word-spacing:0px;fill:#666666;fill-opacity:1;stroke:none;stroke-width:0.27850243"
         id="path4570" />
      <g
         transform="matrix(1.7090157,0,0,1.7090157,-87.146164,42.66005)"
         id="text4504"
         style="font-style:normal;font-weight:normal;font-size:6.5184288px;line-height:1.25;font-family:sans-serif;letter-spacing:0px;word-spacing:0px;fill:#000000;fill-opacity:1;stroke:none;stroke-width:0.16296072"
         aria-label="4">
        <path
           id="path4565"
           style="font-style:oblique;font-variant:normal;font-weight:normal;font-stretch:normal;font-size:65.18429565px;font-family:DAGGERSQUARE;-inkscape-font-specification:'DAGGERSQUARE Oblique';fill:#333333;stroke-width:0.16296072"
           d="m 175.50019,116.39244 h -7.30064 l 2.0859,-11.86355 h -8.66951 l -2.0859,11.86355 h -11.2117 l 12.77612,-26.725565 h -8.99543 L 135.2163,125.06195 h 22.8145 l -1.49924,8.60433 h 8.66952 l 1.49923,-8.60433 h 7.30065 z"
           inkscape:connector-curvature="0" />
      </g>
      <path
         id="path4560"
         transform="matrix(0.26458333,0,0,0.26458333,0,169.99999)"
         d="M 871.82422 97.898438 L 844.87891 153.89648 L 879.4043 153.89648 L 856.13867 286.62695 L 912.23633 286.62695 L 945.50781 97.898438 L 871.82422 97.898438 z "
         style="font-style:oblique;font-variant:normal;font-weight:normal;font-stretch:normal;font-size:65.18429565px;line-height:1.25;font-family:DAGGERSQUARE;-inkscape-font-specification:'DAGGERSQUARE Oblique';letter-spacing:0px;word-spacing:0px;fill:#000000;fill-opacity:1;stroke:none;stroke-width:1.05260766" />
      <path
         id="path4562"
         transform="matrix(0.26458333,0,0,0.26458333,0,169.99999)"
         d="M 1061.5254 97.898438 C 1019.8421 97.898438 979.42138 132.00227 972.26367 173.68555 L 952.18555 286.62695 L 1007.8594 286.62695 L 1011 268 L 1109.9453 268 C 1120.9125 268 1128.2308 276.01795 1127.5039 286.62695 L 1183.7969 286.62695 C 1190.2423 245.47601 1162.6062 212 1121.3125 212 L 1049.3145 212 L 1016.0527 240.21094 L 1027.4199 174.94922 C 1029.5251 163.16 1040.8935 153.89648 1052.2617 153.89648 L 1151.207 153.89648 L 1178.1543 97.898438 L 1061.5254 97.898438 z "
         style="font-style:oblique;font-variant:normal;font-weight:normal;font-stretch:normal;font-size:65.18429565px;line-height:1.25;font-family:DAGGERSQUARE;-inkscape-font-specification:'DAGGERSQUARE Oblique';letter-spacing:0px;word-spacing:0px;fill:#000000;fill-opacity:1;stroke:none;stroke-width:1.05260766" />
      <g
         id="text4541"
         style="font-style:normal;font-weight:normal;font-size:30.2339859px;line-height:1.25;font-family:sans-serif;letter-spacing:0px;word-spacing:0px;fill:#000000;fill-opacity:1;stroke:none;stroke-width:0.75584966"
         aria-label="admin">
        <path
           id="path4490"
           style="font-style:oblique;font-variant:normal;font-weight:normal;font-stretch:normal;font-family:DAGGERSQUARE;-inkscape-font-specification:'DAGGERSQUARE Oblique';text-align:end;letter-spacing:0px;text-anchor:end;fill:#000000;fill-opacity:1;stroke-width:0.75584966"
           d="m 239.53142,257.49252 c 0.39304,-2.23732 -1.08843,-4.02112 -3.32574,-4.02112 h -9.19113 l -1.90475,4.02112 h 9.61441 c 0.45351,0 0.72562,0.33257 0.63492,0.78608 l -1.54194,8.82832 h -7.19569 c -0.45351,0 -0.75585,-0.36281 -0.66514,-0.81631 l 0.21163,-1.20936 c 0.0605,-0.42328 0.48375,-0.78609 0.93726,-0.78609 h 5.71422 l -0.45351,-4.02112 h -5.35141 c -2.20709,0 -4.32346,1.81404 -4.71651,4.02112 l -0.48374,2.81176 c -0.39304,2.20708 1.08842,3.99089 3.2955,3.99089 h 6.01657 l 2.32801,-1.99544 -0.33257,1.99544 h 4.02112 z" />
        <path
           id="path4492"
           style="font-style:oblique;font-variant:normal;font-weight:normal;font-stretch:normal;font-family:DAGGERSQUARE;-inkscape-font-specification:'DAGGERSQUARE Oblique';text-align:end;letter-spacing:0px;text-anchor:end;fill:#000000;fill-opacity:1;stroke-width:0.75584966"
           d="m 260.03006,248.42232 h -4.02112 l -3.29551,18.6846 h -7.19569 c -0.45351,0 -0.75585,-0.36281 -0.66514,-0.81631 l 1.39076,-8.01201 c 0.0907,-0.45351 0.51398,-0.78608 0.96749,-0.78608 h 5.98633 l -0.51398,-4.02112 h -5.59329 c -2.20708,0 -4.29323,1.7838 -4.68627,4.02112 l -1.6931,9.6144 c -0.39304,2.20708 1.08842,3.99089 3.2955,3.99089 h 6.01657 l 2.32801,-1.99544 -0.33257,1.99544 h 4.02112 z" />
        <path
           id="path4494"
           style="font-style:oblique;font-variant:normal;font-weight:normal;font-stretch:normal;font-family:DAGGERSQUARE;-inkscape-font-specification:'DAGGERSQUARE Oblique';text-align:end;letter-spacing:0px;text-anchor:end;fill:#000000;fill-opacity:1;stroke-width:0.75584966"
           d="m 287.51275,257.49252 c 0.39304,-2.23732 -1.08842,-4.02112 -3.29551,-4.02112 h -5.10954 l -2.75129,2.35825 c -0.39304,-1.39077 -1.63264,-2.35825 -3.26527,-2.35825 h -5.07931 l -2.35825,1.99544 0.33257,-1.99544 h -3.99089 l -3.08386,17.62641 h 3.99088 l 2.38849,-13.60529 h 6.3189 c 0.45351,0 0.72562,0.33257 0.63492,0.78608 l -2.23732,12.81921 h 4.02112 l 2.38849,-13.60529 h 6.28867 c 0.4535,0 0.75584,0.33257 0.66514,0.78608 l -2.23731,12.81921 h 3.99088 z" />
        <path
           id="path4496"
           style="font-style:oblique;font-variant:normal;font-weight:normal;font-stretch:normal;font-family:DAGGERSQUARE;-inkscape-font-specification:'DAGGERSQUARE Oblique';text-align:end;letter-spacing:0px;text-anchor:end;fill:#000000;fill-opacity:1;stroke-width:0.75584966"
           d="m 288.02342,271.09781 3.08387,-17.62641 h 3.99088 l -3.08386,17.62641 z m 3.99089,-22.67549 -0.66515,3.74901 4.20252,-1.20936 0.45351,-2.53965 z" />
        <path
           id="path4498"
           style="font-style:oblique;font-variant:normal;font-weight:normal;font-stretch:normal;font-family:DAGGERSQUARE;-inkscape-font-specification:'DAGGERSQUARE Oblique';text-align:end;letter-spacing:0px;text-anchor:end;fill:#000000;fill-opacity:1;stroke-width:0.75584966"
           d="m 312.37878,257.49252 c 0.39304,-2.23732 -1.08842,-4.02112 -3.32574,-4.02112 h -5.07931 l -2.35825,1.99544 0.33258,-1.99544 h -3.99089 l -3.08387,17.62641 h 3.99089 l 2.38849,-13.60529 h 6.3189 c 0.45351,0 0.72561,0.33257 0.63491,0.78608 l -2.23731,12.81921 h 4.02112 z" />
      </g>
    </g>
  </g>
</svg>
