<?xml version="1.0" encoding="UTF-8" standalone="no"?>
<!-- Created with Inkscape (http://www.inkscape.org/) -->

<svg
   xmlns:dc="http://purl.org/dc/elements/1.1/"
   xmlns:cc="http://creativecommons.org/ns#"
   xmlns:rdf="http://www.w3.org/1999/02/22-rdf-syntax-ns#"
   xmlns:svg="http://www.w3.org/2000/svg"
   xmlns="http://www.w3.org/2000/svg"
   xmlns:sodipodi="http://sodipodi.sourceforge.net/DTD/sodipodi-0.dtd"
   xmlns:inkscape="http://www.inkscape.org/namespaces/inkscape"
   width="1200"
   height="480"
   viewBox="0 0 317.49999 127"
   version="1.1"
   id="svg8"
   inkscape:version="0.92.1 r15371"
   sodipodi:docname="Logo.svg">
  <defs
     id="defs2" />
  <sodipodi:namedview
     id="base"
     pagecolor="#ffffff"
     bordercolor="#666666"
     borderopacity="1.0"
     inkscape:pageopacity="0.0"
     inkscape:pageshadow="2"
     inkscape:zoom="0.1767767"
     inkscape:cx="-710.23777"
     inkscape:cy="1038.1216"
     inkscape:document-units="px"
     inkscape:current-layer="layer1"
     showgrid="false"
     inkscape:window-width="1366"
     inkscape:window-height="715"
     inkscape:window-x="-8"
     inkscape:window-y="-8"
     inkscape:window-maximized="1"
     inkscape:pagecheckerboard="true"
     units="px"
     width="1200px" />
  <metadata
     id="metadata5">
    <rdf:RDF>
      <cc:Work
         rdf:about="">
        <dc:format>image/svg+xml</dc:format>
        <dc:type
           rdf:resource="http://purl.org/dc/dcmitype/StillImage" />
        <dc:title />
      </cc:Work>
    </rdf:RDF>
  </metadata>
  <g
     inkscape:label="Camada 1"
     inkscape:groupmode="layer"
     id="layer1"
     transform="translate(0,-169.99999)">
    <g
       id="g4581"
       transform="matrix(1.7090157,0,0,1.7090157,-87.146164,42.66005)">
      <g
         id="text4500"
         style="font-style:normal;font-weight:normal;font-size:6.5184288px;line-height:1.25;font-family:sans-serif;letter-spacing:0px;word-spacing:0px;fill:#000000;fill-opacity:1;stroke:none;stroke-width:0.16296072"
         aria-label="UM">
        <path
           id="path4568"
           style="font-style:oblique;font-variant:normal;font-weight:normal;font-stretch:normal;font-size:65.18429565px;font-family:DAGGERSQUARE;-inkscape-font-specification:'DAGGERSQUARE Oblique';fill:#666666;stroke-width:0.16296072"
           d="m 91.853149,89.666875 h -8.669511 l -5.671034,32.135855 c -0.325921,1.75998 -2.020713,3.25922 -3.845873,3.25922 h -8.79988 c -1.759976,0 -2.998478,-1.49924 -2.672556,-3.25922 L 67.865328,89.666875 H 59.261001 L 53.524783,121.9331 c -1.108133,6.45325 3.259215,11.73318 9.71246,11.73318 h 9.125802 c 6.453245,0 12.645753,-5.27993 13.753886,-11.73318 z"
           inkscape:connector-curvature="0" />
        <path
           id="path4570"
           style="font-style:oblique;font-variant:normal;font-weight:normal;font-stretch:normal;font-size:65.18429565px;font-family:DAGGERSQUARE;-inkscape-font-specification:'DAGGERSQUARE Oblique';fill:#666666;stroke-width:0.16296072"
           d="m 129.77106,89.666875 -14.9272,18.968635 -8.14804,-18.968635 H 98.091492 L 90.33456,133.66628 h 8.604327 l 4.823643,-27.37741 5.8014,13.49315 h 6.6488 l 10.62504,-13.49315 -4.82364,27.37741 h 8.60433 l 7.75693,-43.999405 z"
           inkscape:connector-curvature="0" />
      </g>
      <g
         id="text4504"
         style="font-style:normal;font-weight:normal;font-size:6.5184288px;line-height:1.25;font-family:sans-serif;letter-spacing:0px;word-spacing:0px;fill:#000000;fill-opacity:1;stroke:none;stroke-width:0.16296072"
         aria-label="4">
        <path
           id="path4565"
           style="font-style:oblique;font-variant:normal;font-weight:normal;font-stretch:normal;font-size:65.18429565px;font-family:DAGGERSQUARE;-inkscape-font-specification:'DAGGERSQUARE Oblique';fill:#333333;stroke-width:0.16296072"
           d="m 175.50019,116.39244 h -7.30064 l 2.0859,-11.86355 h -8.66951 l -2.0859,11.86355 h -11.2117 l 12.77612,-26.725565 h -8.99543 L 135.2163,125.06195 h 22.8145 l -1.49924,8.60433 h 8.66952 l 1.49923,-8.60433 h 7.30065 z"
           inkscape:connector-curvature="0" />
      </g>
      <g
         id="text4508"
         style="font-style:normal;font-weight:normal;font-size:6.5184288px;line-height:1.25;font-family:sans-serif;letter-spacing:0px;word-spacing:0px;fill:#000000;fill-opacity:1;stroke:none;stroke-width:0.16296072"
         aria-label="16">
        <path
           id="path4560"
           style="font-style:oblique;font-variant:normal;font-weight:normal;font-stretch:normal;font-size:65.18429565px;font-family:DAGGERSQUARE;-inkscape-font-specification:'DAGGERSQUARE Oblique';stroke-width:0.16296072"
           d="m 197.37191,89.666875 h -11.40725 l -4.17179,8.669512 h 5.34511 l -6.19251,35.329893 h 8.66951 z"
           inkscape:connector-curvature="0" />
        <path
           id="path4562"
           style="font-style:oblique;font-variant:normal;font-weight:normal;font-stretch:normal;font-size:65.18429565px;font-family:DAGGERSQUARE;-inkscape-font-specification:'DAGGERSQUARE Oblique';stroke-width:0.16296072"
           d="M 224.58941,107.33182 H 213.4429 l -5.14956,4.36735 1.75997,-10.10357 c 0.32592,-1.825159 2.0859,-3.259213 3.84588,-3.259213 h 15.31831 l 4.17179,-8.669512 h -18.05605 c -6.45325,0 -12.71094,5.279928 -13.81907,11.733175 l -3.65032,20.53305 c -1.10813,6.45325 3.25921,11.73318 9.71246,11.73318 h 12.38502 c 6.45324,0 12.64575,-5.27993 13.75388,-11.73318 l 0.52148,-2.86811 c 1.10813,-6.45324 -3.19403,-11.73317 -9.64728,-11.73317 z m 0.52147,14.47091 c -0.32592,1.75998 -2.02071,3.25922 -3.84587,3.25922 h -12.05909 c -1.75998,0 -2.99848,-1.49924 -2.67256,-3.25922 l 0.97776,-5.8014 h 15.31831 c 1.82516,0 2.99848,1.43406 2.67256,3.25922 z"
           inkscape:connector-curvature="0" />
      </g>
    </g>
  </g>
</svg>
